<svg width="102" height="32" viewBox="0 0 102 32" fill="none" xmlns="http://www.w3.org/2000/svg">
<rect width="32" height="32" rx="5" fill="#E96404"/>
<path d="M20.2 9H23V24H20.2V9ZM9 18.375H11.8V24H9V18.375ZM14.6 13.6875H17.4V24H14.6V13.6875Z" fill="white"/>
<path d="M46.8232 10.3359L49.5625 18.0703L52.2871 10.3359H55.1729V21H52.9683V18.085L53.188 13.0532L50.3096 21H48.8008L45.9297 13.0605L46.1494 18.085V21H43.9521V10.3359H46.8232ZM59.2891 17.2427V21H57.0918V10.3359H61.252C62.0527 10.3359 62.7559 10.4824 63.3613 10.7754C63.9717 11.0684 64.4404 11.4858 64.7676 12.0278C65.0947 12.5649 65.2583 13.1777 65.2583 13.8662C65.2583 14.9111 64.8994 15.7363 64.1816 16.3418C63.4688 16.9424 62.48 17.2427 61.2153 17.2427H59.2891ZM59.2891 15.4629H61.252C61.833 15.4629 62.2749 15.3262 62.5776 15.0527C62.8853 14.7793 63.0391 14.3887 63.0391 13.8809C63.0391 13.3584 62.8853 12.936 62.5776 12.6138C62.27 12.2915 61.8452 12.1255 61.3032 12.1157H59.2891V15.4629ZM75.2119 19.6523C74.8164 20.126 74.2573 20.4946 73.5347 20.7583C72.812 21.0171 72.0112 21.1465 71.1323 21.1465C70.2095 21.1465 69.3989 20.9463 68.7007 20.5459C68.0073 20.1406 67.4702 19.5547 67.0894 18.7881C66.7134 18.0215 66.5205 17.1206 66.5107 16.0854V15.3604C66.5107 14.2959 66.689 13.3755 67.0454 12.5991C67.4067 11.8179 67.9243 11.2222 68.5981 10.812C69.2769 10.397 70.0703 10.1895 70.9785 10.1895C72.2432 10.1895 73.2319 10.4922 73.9448 11.0977C74.6577 11.6982 75.0801 12.5747 75.2119 13.7271H73.0732C72.9756 13.1167 72.7583 12.6699 72.4214 12.3867C72.0894 12.1035 71.6304 11.9619 71.0444 11.9619C70.2974 11.9619 69.7285 12.2427 69.3379 12.8042C68.9473 13.3657 68.7495 14.2007 68.7446 15.3091V15.9902C68.7446 17.1084 68.957 17.9531 69.3818 18.5244C69.8066 19.0957 70.4292 19.3813 71.2495 19.3813C72.0747 19.3813 72.6631 19.2056 73.0146 18.854V17.0156H71.0151V15.397H75.2119V19.6523ZM87.8169 21H80.5073V19.5498L83.957 15.873C84.4307 15.3555 84.7798 14.9038 85.0044 14.5181C85.2339 14.1323 85.3486 13.7661 85.3486 13.4194C85.3486 12.9458 85.229 12.5747 84.9897 12.3062C84.7505 12.0327 84.4087 11.896 83.9644 11.896C83.4858 11.896 83.1074 12.062 82.8291 12.394C82.5557 12.7212 82.4189 13.1533 82.4189 13.6904H80.2949C80.2949 13.041 80.4487 12.4478 80.7563 11.9106C81.0688 11.3735 81.5083 10.9536 82.0747 10.6509C82.6411 10.3433 83.2832 10.1895 84.001 10.1895C85.0996 10.1895 85.9517 10.4531 86.5571 10.9805C87.1675 11.5078 87.4727 12.2524 87.4727 13.2144C87.4727 13.7417 87.3359 14.2788 87.0625 14.8257C86.7891 15.3726 86.3203 16.0098 85.6562 16.7373L83.2319 19.2935H87.8169V21ZM89.3184 19.96C89.3184 19.623 89.4307 19.3496 89.6553 19.1396C89.8848 18.9297 90.1704 18.8247 90.5122 18.8247C90.8589 18.8247 91.1445 18.9297 91.3691 19.1396C91.5986 19.3496 91.7134 19.623 91.7134 19.96C91.7134 20.292 91.6011 20.563 91.3765 20.7729C91.1519 20.978 90.8638 21.0806 90.5122 21.0806C90.1655 21.0806 89.8799 20.978 89.6553 20.7729C89.4307 20.563 89.3184 20.292 89.3184 19.96ZM100.664 16.5908C100.664 18.0654 100.358 19.1934 99.748 19.9746C99.1377 20.7559 98.2441 21.1465 97.0674 21.1465C95.9053 21.1465 95.0166 20.7632 94.4014 19.9966C93.7861 19.23 93.4712 18.1313 93.4565 16.7007V14.7378C93.4565 13.2485 93.7642 12.1182 94.3794 11.3467C94.9995 10.5752 95.8906 10.1895 97.0527 10.1895C98.2148 10.1895 99.1035 10.5728 99.7188 11.3394C100.334 12.1011 100.649 13.1973 100.664 14.6279V16.5908ZM98.5469 14.4375C98.5469 13.5537 98.4248 12.9116 98.1807 12.5112C97.9414 12.106 97.5654 11.9033 97.0527 11.9033C96.5547 11.9033 96.186 12.0962 95.9468 12.4819C95.7124 12.8628 95.5879 13.4609 95.5732 14.2764V16.8691C95.5732 17.7383 95.6904 18.3853 95.9248 18.8101C96.1641 19.23 96.5449 19.4399 97.0674 19.4399C97.585 19.4399 97.9585 19.2373 98.188 18.832C98.4175 18.4268 98.5371 17.8066 98.5469 16.9717V14.4375Z" fill="white"/>
</svg>
